# xmcd
#
# Track frame offsets:
#	150
#	14842
#	22045
#	41280
#	63600
#	75855
#	92092
#	103697
#
# Disc length: 1687 seconds
#
# Revision: 1
# Processed by: cddbd v1.5.2PL0 Copyright (c) Steve Scherf et al.
# Submitted via: audiograbber 1.83.01
#
DISCID=5c069508
DTITLE=Bishops, The - Christmas with Family and Friends
DYEAR=1991
DGENRE=Christmas
TTITLE0=Do You Hear What I Hear
TTITLE1=Ring Christmas Bells
TTITLE2=White Christmas/The Christmas Song
TTITLE3=Silent Night/O Little Town Of/Go Tell It On/Joy To The World/O Holy Nig
TTITLE3=ht
TTITLE4=Spend A Little More Love
TTITLE5=Beautiful Star Of Bethlehem
TTITLE6=Christ Is Born In Bethlehem
TTITLE7=Hark The Herald/Angels We Have/It Came Upon/Away In A/The First Noel
EXTD=
EXTT0=
EXTT1=
EXTT2=
EXTT3=
EXTT4=
EXTT5=
EXTT6=
EXTT7=
PLAYORDER=
